<?xml version="1.0" encoding="UTF-8" standalone="no"?>
<svg
   xmlns:dc="http://purl.org/dc/elements/1.1/"
   xmlns:cc="http://creativecommons.org/ns#"
   xmlns:rdf="http://www.w3.org/1999/02/22-rdf-syntax-ns#"
   xmlns:svg="http://www.w3.org/2000/svg"
   xmlns="http://www.w3.org/2000/svg"
   xmlns:sodipodi="http://sodipodi.sourceforge.net/DTD/sodipodi-0.dtd"
   xmlns:inkscape="http://www.inkscape.org/namespaces/inkscape"
   inkscape:version="1.0 (4035a4fb49, 2020-05-01)"
   inkscape:export-ydpi="300"
   inkscape:export-xdpi="300"
   inkscape:export-filename="C:\xampp\htdocs\azura_public\img\text6.png"
   sodipodi:docname="logo.svg"
   viewBox="0 0 179.99969 47.999901"
   id="svg8"
   height="47.999901"
   width="179.99969"
   version="1.1">
  <metadata
     id="metadata14">
    <rdf:RDF>
      <cc:Work
         rdf:about="">
        <dc:format>image/svg+xml</dc:format>
        <dc:type
           rdf:resource="http://purl.org/dc/dcmitype/StillImage" />
        <dc:title></dc:title>
      </cc:Work>
    </rdf:RDF>
  </metadata>
  <defs
     id="defs12" />
  <sodipodi:namedview
     inkscape:current-layer="svg8"
     inkscape:window-maximized="1"
     inkscape:window-y="-8"
     inkscape:window-x="-8"
     inkscape:cy="8.6601862"
     inkscape:cx="47.631248"
     inkscape:zoom="2.2922084"
     showgrid="false"
     id="namedview10"
     inkscape:window-height="705"
     inkscape:window-width="1366"
     inkscape:pageshadow="2"
     inkscape:pageopacity="0"
     guidetolerance="10"
     gridtolerance="10"
     objecttolerance="10"
     borderopacity="1"
     bordercolor="#666666"
     pagecolor="#ffffff" />
  <path
     inkscape:export-ydpi="300"
     inkscape:export-xdpi="300"
     id="path2"
     style="fill:#ffffff;fill-rule:evenodd;stroke:#ffffff;stroke-width:0.216;stroke-linecap:butt;stroke-linejoin:miter;stroke-dasharray:none"
     d="m 24.4407,4.9849 c 10.2725,0 18.6001,8.3276 18.6001,18.6001 0,10.2724 -8.3276,18.6001 -18.6001,18.6001 -10.2724,0 -18.6001,-8.3277 -18.6001,-18.6001 0,-10.2725 8.3277,-18.6001 18.6001,-18.6001 z m -7.3343,25.5795 7.3292,-5.7092 7.3395,5.7092 c 0.525,0.4082 1.2095,0.5448 1.2095,1.2096 v 1.9423 c 0,0.6638 -0.6409,1.5531 -1.2095,1.2092 l -7.3397,-4.4404 -7.329,4.4404 c -0.5678,0.3439 -1.2096,-0.5439 -1.2096,-1.2092 V 31.774 c 0,-0.6653 0.6849,-0.8008 1.2096,-1.2096 z m 0,-6.3436 7.3292,-5.7093 7.3395,5.7093 c 0.525,0.4082 1.2095,0.5451 1.2095,1.2092 v 1.9426 c 0,0.6639 -0.6409,1.5534 -1.2095,1.2093 l -7.3397,-4.4405 -7.329,4.4405 c -0.5678,0.3438 -1.2096,-0.5443 -1.2096,-1.2093 V 25.43 c 0,-0.665 0.6849,-0.8005 1.2096,-1.2092 z m 0,-6.3437 7.3292,-5.7092 7.3395,5.7092 c 0.525,0.4082 1.2095,0.5448 1.2095,1.2093 v 1.9426 c 0,0.6641 -0.6409,1.5531 -1.2095,1.2092 l -7.3397,-4.4407 -7.329,4.4407 C 16.5386,22.5821 15.8968,21.694 15.8968,21.029 v -1.9426 c 0,-0.6653 0.6849,-0.8005 1.2096,-1.2093 z" />
  <text
     inkscape:export-ydpi="300"
     inkscape:export-xdpi="300"
     id="text6"
     y="30.2708"
     x="46.2034"><tspan
       style="font-style:normal;font-variant:normal;font-weight:normal;font-stretch:normal;font-family:'Trebuchet MS';-inkscape-font-specification:'Trebuchet MS';fill:#ffffff;stroke:#ffffff"
       id="tspan4"
       fill="#ffffff"
       font-size="24px"
       font-family="'Trebuchet MS'">Azura Sistemas</tspan></text>
</svg>
